<?xml version="1.0" encoding="UTF-8" standalone="no"?>
<!DOCTYPE svg PUBLIC "-//W3C//DTD SVG 20010904//EN"
              "http://www.w3.org/TR/2001/REC-SVG-20010904/DTD/svg10.dtd">

<svg xmlns="http://www.w3.org/2000/svg"
     width="12.1333in" height="12.1333in"
     viewBox="0 0 1092 1092">
  <path id="Auswahl"
        fill="limegreen" stroke="white" stroke-width="1"
        d="M 399.00,361.00
           C 385.82,337.87 375.75,319.92 350.00,308.31
             331.14,299.81 302.48,299.23 286.00,286.47
             273.73,276.97 265.41,257.78 258.74,244.00
             258.74,244.00 231.70,182.00 231.70,182.00
             223.05,162.78 211.43,139.15 210.37,118.00
             209.50,100.52 220.29,86.58 232.00,75.00
             250.19,57.02 281.43,42.51 306.00,35.58
             314.42,33.20 328.39,30.10 337.00,30.00
             364.38,29.68 381.44,30.82 399.07,55.00
             405.34,63.59 413.74,81.87 418.30,92.00
             418.30,92.00 445.86,155.00 445.86,155.00
             445.86,155.00 495.40,269.00 495.40,269.00
             505.64,294.59 517.67,328.26 518.00,356.00
             518.41,391.04 512.12,415.64 492.33,445.00
             486.88,453.09 476.54,465.71 469.00,471.61
             464.53,475.11 455.53,478.17 450.00,480.78
             450.00,480.78 422.00,496.20 422.00,496.20
             422.00,496.20 388.00,521.18 388.00,521.18
             382.17,524.23 367.78,528.09 361.00,529.65
             341.01,534.26 325.55,536.24 305.00,536.00
             282.46,535.73 255.54,527.92 238.00,513.54
             216.83,496.18 206.01,468.66 203.86,442.00
             203.86,442.00 203.10,431.00 203.10,431.00
             205.15,393.22 223.32,357.65 258.00,339.98
             262.93,337.47 269.69,335.20 275.00,333.50
             282.70,331.03 291.89,329.06 300.00,329.00
             300.00,329.00 310.00,329.00 310.00,329.00
             326.88,329.03 342.81,335.42 358.00,342.14
             358.00,342.14 398.00,362.00 398.00,362.00
             398.00,362.00 399.00,361.00 399.00,361.00 Z
           M 675.00,448.00
           C 675.00,448.00 679.33,461.00 679.33,461.00
             683.13,472.39 687.97,483.00 694.67,493.00
             700.66,501.94 714.75,516.43 717.21,525.00
             718.05,527.91 718.06,530.99 717.99,534.00
             717.67,547.84 710.00,565.12 698.00,572.53
             689.57,577.74 679.72,579.13 670.00,579.50
             656.89,580.00 639.35,575.89 627.00,571.54
             601.77,562.64 580.38,550.98 559.00,534.87
             537.77,518.88 521.73,498.85 522.74,471.00
             523.78,442.61 536.44,421.67 552.28,399.00
             552.28,399.00 591.58,349.00 591.58,349.00
             591.58,349.00 622.63,309.00 622.63,309.00
             622.63,309.00 711.13,194.00 711.13,194.00
             722.43,178.93 738.85,155.30 756.00,147.32
             764.02,143.60 777.15,141.90 786.00,142.00
             786.00,142.00 796.00,142.91 796.00,142.91
             823.17,144.90 846.70,152.36 872.00,161.94
             928.39,183.27 995.89,217.33 1013.57,280.00
             1017.37,293.45 1017.16,302.35 1017.00,316.00
             1016.83,330.44 1009.45,365.39 1006.61,381.00
             1006.61,381.00 995.00,438.00 995.00,438.00
             995.00,438.00 984.37,488.00 984.37,488.00
             984.37,488.00 971.54,553.00 971.54,553.00
             971.54,553.00 959.80,611.00 959.80,611.00
             956.48,628.24 953.04,656.92 940.70,669.83
             927.91,683.20 909.95,683.19 893.00,683.00
             881.61,682.86 869.97,679.65 859.00,676.89
             826.45,668.71 787.80,654.92 768.22,626.00
             754.78,606.15 754.77,581.57 759.79,559.00
             760.74,554.73 764.07,540.20 767.42,538.07
             769.81,536.47 773.43,537.54 776.00,538.07
             782.75,539.64 784.02,539.99 791.00,540.00
             808.63,540.03 815.92,534.91 830.00,524.86
             835.12,521.20 840.09,518.01 844.00,513.00
             817.60,513.00 788.15,514.58 763.00,505.46
             739.88,497.07 717.44,477.78 697.93,462.88
             697.93,462.88 676.00,447.00 676.00,447.00
             676.00,447.00 675.00,448.00 675.00,448.00 Z
           M 828.00,408.00
           C 828.00,408.00 832.11,392.00 832.11,392.00
             832.11,392.00 839.88,359.00 839.88,359.00
             839.88,359.00 844.21,342.00 844.21,342.00
             844.21,342.00 847.85,327.00 847.85,327.00
             847.85,327.00 848.69,319.22 848.69,319.22
             848.69,319.22 841.00,314.22 841.00,314.22
             841.00,314.22 819.00,305.00 819.00,305.00
             809.02,334.90 791.25,363.07 812.04,393.00
             816.10,398.85 820.91,405.92 828.00,408.00 Z
           M 417.00,699.00
           C 418.15,692.88 415.10,686.72 413.05,681.00
             413.05,681.00 405.03,655.00 405.03,655.00
             397.04,627.79 386.87,582.95 387.00,555.00
             387.11,532.46 403.67,520.17 421.00,508.67
             433.60,500.31 447.10,492.96 461.00,487.00
             475.96,480.59 496.69,472.36 513.00,472.00
             513.03,517.23 552.70,544.38 588.00,564.57
             588.00,564.57 609.00,574.69 609.00,574.69
             611.92,576.03 616.20,577.36 618.47,579.50
             620.81,581.70 626.80,593.30 629.06,597.00
             629.06,597.00 655.30,643.00 655.30,643.00
             655.30,643.00 726.30,767.00 726.30,767.00
             726.30,767.00 747.30,804.00 747.30,804.00
             749.60,808.16 756.28,818.42 757.35,822.00
             758.24,824.96 758.04,831.66 758.00,835.00
             757.77,853.45 741.79,868.70 729.00,880.05
             703.06,903.08 658.45,926.94 623.00,927.00
             623.00,927.00 610.00,927.00 610.00,927.00
             585.78,926.71 549.98,906.14 551.04,879.00
             551.44,868.80 557.81,853.21 560.98,843.00
             560.98,843.00 565.11,827.00 565.11,827.00
             568.86,810.50 567.00,791.49 564.00,775.00
             564.00,775.00 562.00,775.00 562.00,775.00
             562.00,775.00 546.31,808.00 546.31,808.00
             538.93,824.06 532.95,839.23 519.91,851.83
             487.51,883.15 443.77,872.02 404.00,868.17
             404.00,868.17 366.00,867.00 366.00,867.00
             369.24,873.23 382.62,880.08 389.00,883.72
             409.56,895.43 425.62,901.09 448.00,907.98
             461.58,912.15 477.53,915.60 486.10,928.00
             495.51,941.63 497.81,963.34 489.65,978.00
             485.36,985.73 475.95,994.31 469.00,999.79
             438.17,1024.07 397.10,1044.68 358.00,1050.27
             358.00,1050.27 342.00,1052.00 342.00,1052.00
             325.91,1052.18 306.12,1049.58 293.00,1039.47
             284.71,1033.08 276.33,1020.46 271.78,1011.00
             263.22,993.19 256.83,974.98 251.42,956.00
             251.42,956.00 243.33,928.00 243.33,928.00
             243.33,928.00 223.43,873.00 223.43,873.00
             223.43,873.00 196.95,799.00 196.95,799.00
             196.95,799.00 169.26,721.00 169.26,721.00
             164.66,706.97 157.17,683.46 157.00,669.00
             157.00,669.00 157.00,664.00 157.00,664.00
             157.08,648.09 165.15,637.73 176.00,627.00
             195.28,607.94 225.54,596.92 250.00,585.69
             272.19,575.50 288.71,565.21 314.00,574.44
             343.79,585.30 357.55,619.62 367.94,647.00
             370.62,654.08 374.84,668.11 378.56,674.00
             388.04,689.01 402.06,691.95 417.00,699.00 Z" />
</svg>
