<?xml version="1.0" encoding="UTF-8" standalone="no"?>
<!DOCTYPE svg PUBLIC "-//W3C//DTD SVG 20010904//EN"
              "http://www.w3.org/TR/2001/REC-SVG-20010904/DTD/svg10.dtd">

<svg xmlns="http://www.w3.org/2000/svg"
     width="5.55556in" height="1.11111in"
     viewBox="0 0 500 100">
  <path id="Auswahl"
        fill="white" stroke="LimeGreen" stroke-width="1"
        d="M 273.00,34.00
           C 269.87,29.33 268.65,27.95 269.05,22.00
             270.07,7.17 292.50,7.81 293.89,22.00
             294.22,25.41 293.54,29.08 291.35,31.79
             289.51,34.06 286.51,35.54 284.00,37.00
             286.09,37.35 290.75,37.18 291.98,38.64
             293.65,40.62 292.96,51.90 293.00,55.00
             293.12,63.42 301.99,76.52 287.00,80.37
             284.91,80.81 283.12,80.90 281.00,80.37
             266.62,77.49 270.00,61.01 270.00,50.00
             270.00,44.75 268.38,37.47 273.00,34.00 Z
           M 401.00,34.00
           C 399.14,31.66 397.67,29.96 396.88,27.00
             396.13,24.62 396.26,22.36 396.88,20.00
             401.14,5.48 424.20,9.41 421.79,26.00
             421.47,28.14 420.72,30.10 419.35,31.79
             417.51,34.06 414.51,35.54 412.00,37.00
             414.09,37.35 418.75,37.18 419.98,38.64
             421.65,40.62 420.96,51.90 421.00,55.00
             421.11,63.34 423.27,63.21 423.75,68.00
             424.41,74.53 420.18,79.18 414.00,80.46
             411.35,81.01 408.54,80.68 406.00,79.74
             395.09,75.68 398.00,59.52 398.00,50.00
             398.00,44.75 396.38,37.47 401.00,34.00 Z
           M 481.00,52.00
           C 484.44,55.29 489.41,56.49 491.69,61.02
             492.61,62.85 492.90,64.97 492.95,67.00
             493.34,85.90 465.50,83.13 467.56,66.00
             468.29,59.86 472.36,57.87 472.45,54.00
             472.45,54.00 469.29,43.00 469.29,43.00
             467.70,35.48 467.99,31.49 468.00,24.00
             468.00,21.87 467.77,18.27 469.02,16.51
             471.57,12.92 485.42,10.83 489.86,18.11
             495.38,27.14 490.13,42.68 488.00,52.00
             488.00,52.00 481.00,52.00 481.00,52.00 Z
           M 352.29,17.74
           C 355.66,16.82 365.81,16.06 368.36,18.74
             370.18,20.65 369.14,24.53 369.04,27.00
             368.73,34.45 370.52,42.67 361.00,43.66
             350.31,44.78 350.39,36.07 350.04,28.00
             349.87,24.14 349.17,20.35 352.29,17.74 Z
           M 437.00,18.00
           C 446.69,16.72 444.31,16.72 454.00,18.00
             454.00,20.87 453.49,26.28 455.60,28.40
             458.75,31.56 464.20,27.67 464.90,37.00
             465.12,39.82 464.86,45.11 462.44,46.98
             460.20,48.71 456.50,47.47 455.86,52.06
             455.07,57.74 457.74,60.85 463.00,62.00
             463.61,66.76 464.46,71.61 461.28,75.79
             456.15,82.52 442.16,82.13 436.22,76.61
             430.40,71.19 432.00,58.53 432.00,51.00
             432.00,51.00 437.00,48.00 437.00,48.00
             437.00,48.00 426.00,48.00 426.00,48.00
             426.00,48.00 426.60,36.09 426.60,36.09
             426.60,36.09 432.59,28.96 432.59,28.96
             432.59,28.96 437.00,18.00 437.00,18.00 Z
           M 33.00,61.00
           C 32.20,52.79 26.85,53.22 24.02,48.63
             22.43,46.04 22.99,36.44 23.00,33.00
             23.00,29.94 22.68,25.91 24.74,23.42
             29.00,18.24 44.38,18.68 48.26,24.13
             49.97,26.54 49.96,29.19 50.00,32.00
             50.00,32.00 50.00,55.00 50.00,55.00
             49.99,63.68 48.89,71.83 40.99,77.03
             29.78,84.40 9.11,81.21 6.31,70.00
             4.04,60.86 11.39,51.40 21.00,52.56
             26.92,53.27 29.46,56.73 33.00,61.00 Z
           M 72.00,64.00
           C 77.04,69.55 80.05,66.98 80.97,72.05
             82.86,82.52 63.81,81.65 58.02,78.55
             49.52,74.01 53.99,62.33 55.65,55.00
             55.65,55.00 60.35,34.00 60.35,34.00
             61.02,31.06 61.53,26.67 63.56,24.42
             65.89,21.82 71.61,20.54 75.00,20.17
             84.48,19.15 97.55,19.15 102.43,29.00
             104.11,32.40 107.42,47.46 108.42,52.00
             108.42,52.00 112.13,67.00 112.13,67.00
             112.70,69.32 113.80,72.61 112.81,74.90
             111.21,78.56 106.52,79.63 103.00,80.24
             92.61,82.05 85.57,79.51 85.00,68.00
             89.18,67.10 89.96,66.82 92.00,63.00
             83.02,67.35 81.07,65.82 72.00,64.00 Z
           M 137.00,60.00
           C 142.69,68.90 148.41,68.19 146.68,74.95
             145.70,78.80 142.42,79.49 139.00,80.19
             132.82,81.46 121.67,81.20 117.95,74.90
             116.07,71.10 117.22,64.17 117.95,60.00
             117.95,60.00 119.93,36.00 119.93,36.00
             120.22,32.77 120.55,25.84 122.60,23.42
             125.22,20.32 130.26,20.05 134.00,20.11
             134.00,20.11 141.00,20.11 141.00,20.11
             151.34,22.14 147.23,35.26 147.88,37.82
             148.32,39.53 148.97,39.82 150.00,41.00
             150.33,36.99 152.16,25.30 154.72,22.51
             157.60,19.38 169.21,19.24 172.98,20.74
             174.77,21.45 176.07,22.51 177.15,24.11
             179.17,27.12 179.72,35.21 180.07,39.00
             180.07,39.00 183.29,73.91 183.29,73.91
             182.66,77.59 179.19,78.91 176.00,79.83
             169.86,81.61 159.60,81.42 156.18,74.96
             152.40,67.83 159.64,67.95 162.00,60.00
             162.00,60.00 156.91,64.28 156.91,64.28
             148.83,69.39 143.45,62.99 137.00,60.00 Z
           M 205.00,37.00
           C 209.14,29.73 217.08,27.47 225.00,29.56
             228.65,30.51 230.29,32.48 232.28,32.61
             234.30,32.74 237.00,30.87 239.00,30.14
             241.86,29.09 244.97,28.88 248.00,29.04
             262.39,29.80 262.94,43.08 263.00,54.00
             263.05,64.36 266.32,63.92 265.87,70.00
             265.15,79.88 252.53,83.58 245.10,78.28
             240.00,74.64 240.01,69.60 240.00,64.00
             239.99,57.33 241.49,52.68 236.00,48.00
             236.00,48.00 237.16,66.00 237.16,66.00
             237.03,68.20 237.82,74.35 237.16,75.84
             235.61,80.58 222.20,83.79 216.74,75.84
             211.31,68.05 219.56,55.79 211.06,48.00
             211.06,48.00 211.06,61.00 211.06,61.00
             211.01,64.69 212.90,75.19 211.06,77.35
             207.87,81.49 195.06,82.01 190.74,76.61
             188.82,74.21 189.02,70.90 188.81,68.00
             188.81,68.00 188.81,51.00 188.81,51.00
             187.60,45.85 183.40,36.32 187.85,31.60
             190.50,28.79 200.56,30.02 204.00,31.00
             204.00,31.00 205.00,37.00 205.00,37.00 Z
           M 314.00,37.00
           C 315.34,34.65 315.80,33.61 318.11,31.97
             324.81,27.19 338.85,27.78 344.44,34.21
             350.84,41.56 347.91,52.80 349.00,59.00
             349.68,62.88 352.12,65.94 351.63,70.00
             350.36,80.58 337.32,83.80 330.13,77.58
             325.33,73.43 325.97,67.72 326.00,62.00
             326.03,56.54 328.14,52.12 323.12,49.00
             323.12,49.00 323.12,57.00 323.12,57.00
             322.99,63.80 322.50,64.86 323.12,72.00
             324.72,83.13 308.28,82.27 303.43,77.43
             299.87,73.88 301.01,63.92 300.84,59.00
             301.00,56.71 301.05,54.26 300.84,52.00
             299.28,43.62 292.40,29.65 307.00,30.02
             309.61,30.08 310.53,30.30 313.00,31.00
             313.00,31.00 314.00,37.00 314.00,37.00 Z
           M 83.00,40.00
           C 83.00,40.00 80.00,40.00 80.00,40.00
             80.39,44.70 80.08,48.28 85.00,50.00
             85.00,50.00 83.00,40.00 83.00,40.00 Z" />
</svg>
