<?xml version="1.0" encoding="UTF-8"?>
<svg width="228px" height="190px" viewBox="0 0 228 190" version="1.1" xmlns="http://www.w3.org/2000/svg" xmlns:xlink="http://www.w3.org/1999/xlink">
    <title>stackbit-monogram</title>
    <defs>
        <path d="M103.765909,2.89921872 L11.0941672,56.5553334 C3.66469111,60.8138403 -0.643670627,69.1233841 0.0784695496,77.8031545 L0.0784695496,77.8031545 L0.0784695496,113.573898 C-0.550998884,122.364558 3.92696963,130.71345 11.5138128,134.893261 L11.5138128,134.893261 L104.185555,186.75905 C110.7635,190.477418 118.749006,190.477418 125.325203,186.75905 L125.325203,186.75905 L216.248421,134.893261 C223.719862,130.629388 228.073685,122.298382 227.386516,113.573898 L227.386516,113.573898 L227.386516,77.8031545 C228.03347,69.1627318 223.740844,60.9175755 216.370818,56.6447602 L216.370818,56.6447602 L125.447599,2.98864558 C122.071201,0.99621519 118.299636,0 114.52982,0 L114.52982,0 C110.817704,0 107.105589,0.965810062 103.765909,2.89921872 L103.765909,2.89921872 Z M111.109707,135.930613 L18.4379656,82.2744974 C17.2874372,81.6234699 16.3397375,80.6540827 15.7050235,79.4772256 L15.7050235,79.4772256 C13.8341034,76.0199833 15.0580698,71.6684725 18.4379656,69.7547377 L18.4379656,69.7547377 L111.109707,16.098623 C113.27438,14.8216074 115.939129,14.8216074 118.103801,16.098623 L118.103801,16.098623 L209.02702,69.8799349 C212.371945,71.8562686 213.518976,76.2310306 211.588607,79.654291 L211.588607,79.654291 C209.658237,83.0775506 205.3796,84.2508311 202.032926,82.2744974 L202.032926,82.2744974 L114.571784,30.6036593 L36.1330227,76.0146176 L117.99889,123.410852 C121.378786,125.356781 122.576524,129.736908 120.674131,133.192362 L120.674131,133.192362 C119.383721,135.538923 117.002231,136.857075 114.549053,136.857075 L114.549053,136.857075 C113.382788,136.857075 112.199038,136.5566 111.109707,135.930613 L111.109707,135.930613 Z M111.24959,173.489892 L18.5778475,121.622315 C18.3120719,121.495329 18.0515419,121.350457 17.8050001,121.189489 L17.8050001,121.189489 C14.5422554,119.07365 13.5735734,114.652386 15.6420766,111.314976 L15.6420766,111.314976 C17.7070828,107.979354 22.0311813,106.986715 25.2921774,109.102555 L25.2921774,109.102555 L114.571784,159.056398 L202.120352,109.102555 C205.500248,107.1763 209.766645,108.417545 211.649805,111.874788 L211.649805,111.874788 C213.532965,115.333819 212.319489,119.696061 208.939593,121.622315 L208.939593,121.622315 L118.016375,173.489892 C116.963764,174.085476 115.797499,174.382372 114.632982,174.382372 L114.632982,174.382372 C113.466717,174.382372 112.302201,174.085476 111.24959,173.489892 L111.24959,173.489892 Z" id="path-1"></path>
    </defs>
    <g id="Page-1" stroke="none" stroke-width="1" fill="none" fill-rule="evenodd">
        <g id="stackbit-monogram" transform="translate(-186.000000, -105.000000)">
            <g transform="translate(186.000000, 105.000000)">
                <mask id="mask-2" fill="white">
                    <use xlink:href="#path-1"></use>
                </mask>
                <g id="path-1"></g>
                <polygon id="Fill-19" fill="#207BEA" fill-rule="nonzero" mask="url(#mask-2)" points="-4.21217391 193.76 231.669565 193.76 231.669565 -4.21217391 -4.21217391 -4.21217391"></polygon>
            </g>
        </g>
    </g>
</svg>