<?xml version="1.0" encoding="UTF-8" standalone="no"?>
<!DOCTYPE svg PUBLIC "-//W3C//DTD SVG 20010904//EN"
              "http://www.w3.org/TR/2001/REC-SVG-20010904/DTD/svg10.dtd">

<svg xmlns="http://www.w3.org/2000/svg"
     width="0.266667in" height="0.266667in"
     viewBox="0 0 24 24">
  <path d="M 13.00,8.00 C 17.22,8.74 17.17,9.22 19.00,13.00 21.34,11.56 22.28,15.18 23.00,17.00 23.00,17.00 13.00,17.00 13.00,17.00 13.00,17.00 13.00,8.00 13.00,8.00 Z M 10.00,9.00 C 10.00,9.00 12.00,9.00 12.00,9.00 12.00,9.00 12.00,17.00 12.00,17.00 12.00,17.00 10.00,17.00 10.00,17.00 10.00,17.00 10.00,9.00 10.00,9.00 Z M 7.00,10.00 C 7.00,10.00 9.00,10.00 9.00,10.00 9.00,10.00 9.00,17.00 9.00,17.00 9.00,17.00 7.00,17.00 7.00,17.00 7.00,17.00 7.00,10.00 7.00,10.00 Z M 4.00,12.00 C 4.00,12.00 6.00,12.00 6.00,12.00 6.00,12.00 6.00,17.00 6.00,17.00 6.00,17.00 4.00,17.00 4.00,17.00 4.00,17.00 4.00,12.00 4.00,12.00 Z M 1.00,13.00 C 1.00,13.00 3.00,13.00 3.00,13.00 3.00,13.00 3.00,17.00 3.00,17.00 3.00,17.00 1.00,17.00 1.00,17.00 1.00,17.00 1.00,13.00 1.00,13.00 Z" />
</svg>
