<svg fill="#000000" height="24" viewBox="0 0 24 24" width="24" xmlns="https://www.w3.org/2000/svg"><path d="M 11.00,9.00 C 11.00,9.00 13.00,9.00 13.00,9.00 13.00,9.00 13.00,19.00 13.00,19.00 13.00,19.00 11.00,19.00 11.00,19.00 11.00,19.00 11.00,9.00 11.00,9.00 Z M 14.00,9.00 C 17.88,9.89 18.32,10.04 19.00,14.00 23.09,14.04 23.17,15.24 24.00,19.00 24.00,19.00 14.00,19.00 14.00,19.00 14.00,19.00 14.00,9.00 14.00,9.00 Z M 8.00,10.00 C 8.00,10.00 10.00,10.00 10.00,10.00 10.00,10.00 10.00,19.00 10.00,19.00 10.00,19.00 8.00,19.00 8.00,19.00 8.00,19.00 8.00,10.00 8.00,10.00 Z M 5.00,12.00 C 5.00,12.00 7.00,12.00 7.00,12.00 7.00,12.00 7.00,19.00 7.00,19.00 7.00,19.00 5.00,19.00 5.00,19.00 5.00,19.00 5.00,12.00 5.00,12.00 Z M 2.00,15.00 C 2.00,15.00 4.00,15.00 4.00,15.00 4.00,15.00 4.00,19.00 4.00,19.00 4.00,19.00 2.00,19.00 2.00,19.00 2.00,19.00 2.00,15.00 2.00,15.00 Z"></path></svg>
