<?xml version="1.0" encoding="UTF-8" standalone="no"?>
<!DOCTYPE svg PUBLIC "-//W3C//DTD SVG 20010904//EN"
              "http://www.w3.org/TR/2001/REC-SVG-20010904/DTD/svg10.dtd">

<svg xmlns="http://www.w3.org/2000/svg"
     width="2.22222in" height="2.22222in"
     viewBox="0 0 200 200">
  <path id="Auswahl"
        fill="f50" stroke="f50" stroke-width="1"
        d="M 163.00,91.00
           C 193.12,82.44 210.41,123.58 184.00,140.05
             178.22,143.65 173.56,143.99 167.00,144.00
             167.00,144.00 107.00,144.00 107.00,144.00
             97.47,143.98 96.02,142.53 96.00,133.00
             96.00,133.00 96.00,71.00 96.00,71.00
             96.00,68.31 95.78,64.57 97.17,62.21
             100.41,56.74 111.32,56.01 117.00,56.23
             120.56,55.99 124.52,55.83 128.00,56.23
             145.82,59.68 159.04,73.63 163.00,91.00 Z
           M 84.54,69.17
           C 89.99,68.45 88.88,78.43 89.04,82.00
             89.04,82.00 90.00,94.00 90.00,94.00
             90.00,94.00 90.00,123.00 90.00,123.00
             90.00,123.00 88.66,138.98 88.66,138.98
             88.30,140.65 86.94,144.29 84.54,142.83
             81.96,141.26 81.99,130.12 81.58,127.00
             81.58,127.00 81.00,101.00 81.00,101.00
             81.00,101.00 82.00,87.00 82.00,87.00
             82.05,82.40 81.88,72.73 84.54,69.17 Z
           M 61.00,144.00
           C 59.39,143.72 58.18,143.80 56.98,142.40
             54.92,139.99 54.01,123.81 54.00,120.00
             54.00,120.00 55.09,85.00 55.09,85.00
             55.22,83.17 55.82,74.01 59.50,76.17
             61.13,77.13 61.63,80.29 61.83,82.00
             61.83,82.00 63.00,98.00 63.00,98.00
             63.00,98.00 63.00,124.00 63.00,124.00
             63.00,124.00 61.00,144.00 61.00,144.00 Z
           M 70.72,78.05
           C 76.19,76.59 75.89,87.26 75.99,91.00
             75.99,91.00 77.00,115.00 77.00,115.00
             77.00,115.00 76.00,129.00 76.00,129.00
             75.95,131.64 75.48,141.47 73.42,142.92
             71.00,144.62 69.51,141.99 69.14,139.94
             69.14,139.94 68.00,125.00 68.00,125.00
             68.00,125.00 67.32,110.72 67.32,110.72
             67.32,110.72 68.00,96.00 68.00,96.00
             68.01,91.39 68.11,81.64 70.72,78.05 Z
           M 43.58,82.08
           C 43.56,82.08 44.96,81.06 46.42,82.08
             48.25,83.36 48.86,92.58 49.02,95.00
             49.02,95.00 49.02,103.00 49.02,103.00
             49.02,103.00 49.98,112.00 49.98,112.00
             49.98,112.00 48.99,130.00 48.99,130.00
             48.92,132.57 48.32,141.49 46.28,142.95
             41.38,146.47 41.07,132.12 41.01,130.00
             41.01,130.00 40.00,111.00 40.00,111.00
             40.00,111.00 41.00,98.00 41.00,98.00
             41.06,93.50 40.93,85.67 43.58,82.08 Z
           M 20.00,142.00
           C 13.93,140.93 14.39,136.41 13.93,131.00
             13.16,118.21 12.39,117.47 13.93,104.00
             14.06,101.93 14.24,91.83 18.63,94.17
             21.55,95.73 21.96,104.94 22.00,108.00
             22.00,108.00 22.00,124.00 22.00,124.00
             22.00,124.00 20.00,142.00 20.00,142.00 Z
           M 30.00,95.00
           C 34.97,97.77 34.53,100.81 35.15,106.00
             36.76,116.44 35.71,121.95 35.15,132.00
             34.65,137.56 35.38,142.88 29.00,144.00
             27.20,130.37 24.70,107.71 30.00,95.00 Z
           M 6.00,135.00
           C 4.61,134.56 3.75,134.57 2.59,133.41
             -0.48,130.31 -0.02,118.39 0.00,114.00
             0.01,111.21 0.10,104.73 1.98,102.62
             3.51,100.90 5.45,101.54 6.57,103.32
             7.86,105.37 8.86,112.44 8.96,115.00
             9.19,120.75 7.49,129.38 6.00,135.00 Z" />
</svg>
