<?xml version="1.0" encoding="UTF-8" standalone="no"?>
<!DOCTYPE svg PUBLIC "-//W3C//DTD SVG 20010904//EN"
              "http://www.w3.org/TR/2001/REC-SVG-20010904/DTD/svg10.dtd">

<svg xmlns="http://www.w3.org/2000/svg"
     width="0.266667in" height="0.266667in"
     viewBox="0 0 24 24">
  <path id="Auswahl"
        fill="f50" stroke="f50" stroke-width="1"
        d="M 12.00,7.00
           C 13.45,7.12 14.58,7.09 16.00,7.58
             18.31,8.39 24.66,12.36 22.26,15.42
             20.62,17.49 14.50,17.00 12.00,17.00
             12.00,17.00 12.00,7.00 12.00,7.00 Z
           M 10.00,9.00
           C 11.25,12.17 11.25,13.83 10.00,17.00
             10.00,17.00 10.00,9.00 10.00,9.00 Z
           M 5.00,10.00
           C 5.00,10.00 5.00,17.00 5.00,17.00
             5.00,17.00 5.00,10.00 5.00,10.00 Z
           M 8.00,10.00
           C 8.00,10.00 8.00,17.00 8.00,17.00
             8.00,17.00 8.00,10.00 8.00,10.00 Z
           M 2.00,12.00
           C 2.00,12.00 4.00,12.00 4.00,12.00
             4.00,12.00 3.00,17.00 3.00,17.00
             3.00,17.00 2.00,12.00 2.00,12.00 Z" />
</svg>
