<?xml version="1.0" encoding="UTF-8" standalone="no"?>
<!DOCTYPE svg PUBLIC "-//W3C//DTD SVG 20010904//EN"
              "http://www.w3.org/TR/2001/REC-SVG-20010904/DTD/svg10.dtd">

<svg xmlns="http://www.w3.org/2000/svg"
     width="0.266667in" height="0.266667in"
     viewBox="0 0 24 24">
  <path id="Auswahl"
        fill="none" stroke="black" stroke-width="1"
        d="M 11.00,7.00
           C 11.00,7.00 13.00,7.00 13.00,7.00
             13.00,7.00 13.00,18.00 13.00,18.00
             13.00,18.00 11.00,18.00 11.00,18.00
             11.00,18.00 11.00,7.00 11.00,7.00 Z
           M 14.00,7.00
           C 18.00,7.70 18.30,8.00 19.00,12.00
             24.67,13.00 24.22,16.15 21.68,17.40
             20.12,18.17 15.86,18.00 14.00,18.00
             14.00,18.00 14.00,7.00 14.00,7.00 Z
           M 8.00,8.00
           C 8.00,8.00 10.00,8.00 10.00,8.00
             10.00,8.00 10.00,18.00 10.00,18.00
             10.00,18.00 8.00,18.00 8.00,18.00
             8.00,18.00 8.00,8.00 8.00,8.00 Z
           M 5.00,10.00
           C 5.00,10.00 7.00,10.00 7.00,10.00
             7.00,10.00 7.00,18.00 7.00,18.00
             7.00,18.00 5.00,18.00 5.00,18.00
             5.00,18.00 5.00,10.00 5.00,10.00 Z
           M 2.00,13.00
           C 2.00,13.00 4.00,13.00 4.00,13.00
             4.00,13.00 4.00,18.00 4.00,18.00
             4.00,18.00 2.00,18.00 2.00,18.00
             2.00,18.00 2.00,13.00 2.00,13.00 Z" />
</svg>
