<?xml version="1.0" encoding="UTF-8" standalone="no"?>
<!DOCTYPE svg PUBLIC "-//W3C//DTD SVG 20010904//EN"
              "http://www.w3.org/TR/2001/REC-SVG-20010904/DTD/svg10.dtd">

<svg xmlns="http://www.w3.org/2000/svg"
     width="0.266667in" height="0.266667in"
     viewBox="0 0 24 24">
  <path d="M 11.00,12.00
           C 11.00,12.00 13.00,12.00 13.00,12.00
             13.00,12.00 13.00,22.00 13.00,22.00
             13.00,22.00 11.00,22.00 11.00,22.00
             11.00,22.00 11.00,12.00 11.00,12.00 Z
           M 14.00,12.00
           C 17.88,12.89 18.32,13.04 19.00,17.00
             22.97,17.05 22.70,18.38 23.00,22.00
             23.00,22.00 14.00,22.00 14.00,22.00
             14.00,22.00 14.00,12.00 14.00,12.00 Z
           M 8.00,13.00
           C 8.00,13.00 10.00,13.00 10.00,13.00
             10.00,13.00 10.00,22.00 10.00,22.00
             10.00,22.00 8.00,22.00 8.00,22.00
             8.00,22.00 8.00,13.00 8.00,13.00 Z
           M 5.00,15.00
           C 5.00,15.00 7.00,15.00 7.00,15.00
             7.00,15.00 7.00,22.00 7.00,22.00
             7.00,22.00 5.00,22.00 5.00,22.00
             5.00,22.00 5.00,15.00 5.00,15.00 Z
           M 2.00,18.00
           C 2.00,18.00 4.00,18.00 4.00,18.00
             4.00,18.00 4.00,22.00 4.00,22.00
             4.00,22.00 2.00,22.00 2.00,22.00
             2.00,22.00 2.00,18.00 2.00,18.00 Z" />
</svg>
