<?xml version="1.0" encoding="UTF-8" standalone="no"?>
<!DOCTYPE svg PUBLIC "-//W3C//DTD SVG 20010904//EN"
              "http://www.w3.org/TR/2001/REC-SVG-20010904/DTD/svg10.dtd">

<svg xmlns="http://www.w3.org/2000/svg"
     width="0.266667in" height="0.266667in"
     viewBox="0 0 24 24">
  <path d="M 0.00,0.00 C 0.00,0.00 24.00,0.00 24.00,0.00 24.00,0.00 24.00,24.00 24.00,24.00 24.00,24.00 0.00,24.00 0.00,24.00 0.00,24.00 0.00,0.00 0.00,0.00 Z M 23.00,16.00 C 21.99,13.29 17.23,5.63 13.59,8.71 11.68,10.33 12.01,14.69 12.00,17.00 12.00,17.00 23.00,16.00 23.00,16.00 Z M 11.00,10.00 C 11.00,10.00 9.00,10.00 9.00,10.00 9.00,10.00 9.00,17.00 9.00,17.00 9.00,17.00 11.00,17.00 11.00,17.00 11.00,17.00 11.00,10.00 11.00,10.00 Z M 8.00,12.00 C 8.00,12.00 6.00,12.00 6.00,12.00 6.00,12.00 6.00,17.00 6.00,17.00 6.00,17.00 8.00,17.00 8.00,17.00 8.00,17.00 8.00,12.00 8.00,12.00 Z M 5.00,13.00 C 5.00,13.00 3.00,13.00 3.00,13.00 3.00,13.00 3.00,17.00 3.00,17.00 3.00,17.00 5.00,17.00 5.00,17.00 5.00,17.00 5.00,13.00 5.00,13.00 Z" />
</svg>
