<?xml version="1.0" encoding="UTF-8" standalone="no"?>
<!DOCTYPE svg PUBLIC "-//W3C//DTD SVG 20010904//EN"
              "http://www.w3.org/TR/2001/REC-SVG-20010904/DTD/svg10.dtd">

<svg xmlns="http://www.w3.org/2000/svg"
     width="0.266667in" height="0.266667in"
     viewBox="0 0 24 24">
  <path d="M 11.00,9.00 C 11.00,9.00 13.00,9.00 13.00,9.00 13.00,9.00 13.00,19.00 13.00,19.00 13.00,19.00 11.00,19.00 11.00,19.00 11.00,19.00 11.00,9.00 11.00,9.00 Z M 14.00,9.00 C 17.88,9.89 18.32,10.04 19.00,14.00 23.09,14.04 23.17,15.24 24.00,19.00 24.00,19.00 14.00,19.00 14.00,19.00 14.00,19.00 14.00,9.00 14.00,9.00 Z M 8.00,10.00 C 8.00,10.00 10.00,10.00 10.00,10.00 10.00,10.00 10.00,19.00 10.00,19.00 10.00,19.00 8.00,19.00 8.00,19.00 8.00,19.00 8.00,10.00 8.00,10.00 Z M 5.00,12.00 C 5.00,12.00 7.00,12.00 7.00,12.00 7.00,12.00 7.00,19.00 7.00,19.00 7.00,19.00 5.00,19.00 5.00,19.00 5.00,19.00 5.00,12.00 5.00,12.00 Z M 2.00,15.00 C 2.00,15.00 4.00,15.00 4.00,15.00 4.00,15.00 4.00,19.00 4.00,19.00 4.00,19.00 2.00,19.00 2.00,19.00 2.00,19.00 2.00,15.00 2.00,15.00 Z" />
</svg>
